<?xml version="1.0" encoding="UTF-8" standalone="no"?>
<svg
   xmlns:dc="http://purl.org/dc/elements/1.1/"
   xmlns:cc="http://creativecommons.org/ns#"
   xmlns:rdf="http://www.w3.org/1999/02/22-rdf-syntax-ns#"
   xmlns:svg="http://www.w3.org/2000/svg"
   xmlns="http://www.w3.org/2000/svg"
   xmlns:xlink="http://www.w3.org/1999/xlink"
   id="svg19"
   version="1.1"
   viewBox="0 0 56.692913 56.692928"
   height="56.692928pt"
   width="56.692913pt">
  <metadata
     id="metadata23">
    <rdf:RDF>
      <cc:Work
         rdf:about="">
        <dc:format>image/svg+xml</dc:format>
        <dc:type
           rdf:resource="http://purl.org/dc/dcmitype/StillImage" />
        <dc:title></dc:title>
      </cc:Work>
    </rdf:RDF>
  </metadata>
  <defs
     id="defs14">
    <clipPath
       id="clip1">
      <rect
         id="rect2"
         height="16"
         width="16"
         y="0"
         x="0" />
    </clipPath>
    <g
       clip-path="url(#clip1)"
       id="surface5">
      <path
         id="path5"
         transform="matrix(0.1,0,0,0.1,-15.74827,-41.730233)"
         d="m 159.0452,418.94295 122.30469,-0.0781 34.57031,156.875 h -156.875 z m 0,0"
         style="fill:none;stroke:#0f5e87;stroke-width:3.09048605;stroke-linecap:round;stroke-linejoin:round;stroke-miterlimit:4;stroke-opacity:1" />
      <path
         id="path7"
         d="M 12.023438,14.960938 H 1.972656 v -3.070313 h 10.050782 v 3.070313 m 0,-3.859376 H 9.503906 V 8.4375 h 2.519532 v 2.664062"
         style="fill:#0f5e87;fill-opacity:1;fill-rule:nonzero;stroke:none" />
      <path
         id="path9"
         d="M 1.972656,11.097656 V 1.0625 H 5.039062 V 8.320312 C 4.394531,8.222656 3.820312,7.949219 3.3125,7.5 L 2.765625,8.058594 C 3.445312,8.664062 4.203125,9 5.039062,9.066406 v 2.03125 H 1.972656 M 5.832031,8.363281 V 1.0625 c 0.949219,0.046875 1.761719,0.425781 2.433594,1.136719 0.679687,0.699219 1.019531,1.527343 1.019531,2.476562 0,0.988281 -0.339844,1.839844 -1.019531,2.550781 C 7.59375,7.933594 6.78125,8.3125 5.832031,8.363281"
         style="fill:#0f5e87;fill-opacity:1;fill-rule:nonzero;stroke:none" />
      <path
         id="path11"
         d="M 9.480469,7.472656 V 4.945312 l 0.953125,2.527344 H 9.480469 M 9.742188,4.808594 h 1.105468 l 0.957032,2.664062 H 10.722656 L 9.742188,4.808594 m 1.386718,0 h 0.898438 V 7.25 L 11.128906,4.808594"
         style="fill:#ff3300;fill-opacity:1;fill-rule:nonzero;stroke:none" />
    </g>
  </defs>
  <g
     transform="matrix(3.5440723,0,0,3.5440723,-0.006116,-0.00611602)"
     id="surface1">
    <use
       height="100%"
       width="100%"
       y="0"
       x="0"
       id="use16"
       xlink:href="#surface5" />
  </g>
</svg>
