<?xml version="1.0" encoding="UTF-8"?>
<!DOCTYPE svg PUBLIC "-//W3C//DTD SVG 1.1//EN" "http://www.w3.org/Graphics/SVG/1.1/DTD/svg11.dtd">
<svg xmlns="http://www.w3.org/2000/svg" xmlns:xlink="http://www.w3.org/1999/xlink" version="1.1" width="506px" height="506px" viewBox="-0.5 -0.5 506 506"><defs/><g><ellipse cx="253" cy="253" rx="225" ry="225" fill="#dae8fc" stroke="#6c8ebf" stroke-width="6" pointer-events="none"/><path d="M 167.11 329.63 C 171.72 353.79 158.08 377.71 134.94 386.04 C 111.8 394.38 86.03 384.64 74.18 363.09 C 62.34 341.54 67.92 314.57 87.35 299.49 C 106.79 284.42 134.3 285.72 152.23 302.55 L 135.11 320.78 C 126.15 312.36 112.39 311.71 102.68 319.25 C 92.96 326.78 90.17 340.27 96.09 351.04 C 102.02 361.82 114.9 366.69 126.47 362.52 C 138.04 358.36 144.86 346.39 142.56 334.32 Z" fill="#10739e" stroke="none" pointer-events="none"/><path d="M 353.77 302.55 C 371.7 285.72 399.21 284.42 418.65 299.49 C 438.08 314.57 443.66 341.54 431.82 363.09 C 419.97 384.64 394.2 394.38 371.06 386.04 C 347.92 377.71 334.28 353.79 338.89 329.63 L 363.44 334.32 C 361.14 346.39 367.96 358.36 379.53 362.52 C 391.1 366.69 403.98 361.82 409.91 351.04 C 415.83 340.27 413.04 326.78 403.32 319.25 C 393.61 311.71 379.85 312.36 370.89 320.78 Z" fill="#10739e" stroke="none" pointer-events="none"/><path d="M 237.55 141.55 C 214.16 133.95 199.77 110.47 203.62 86.18 C 207.46 61.89 228.41 44 253 44 C 277.59 44 298.54 61.89 302.38 86.18 C 306.23 110.47 291.84 133.95 268.45 141.55 L 260.73 117.78 C 272.42 113.98 279.62 102.24 277.69 90.09 C 275.77 77.94 265.3 69 253 69 C 240.7 69 230.23 77.94 228.31 90.09 C 226.38 102.24 233.58 113.98 245.27 117.78 Z" fill="#10739e" stroke="none" pointer-events="none"/><path d="M 173 253 C 173 208.82 208.82 173 253 173 C 274.22 173 294.57 181.43 309.57 196.43 C 324.57 211.43 333 231.78 333 253 C 333 274.22 324.57 294.57 309.57 309.57 C 294.57 324.57 274.22 333 253 333 C 231.78 333 211.43 324.57 196.43 309.57 C 181.43 294.57 173 274.22 173 253 Z M 253 198 C 222.62 198 198 222.62 198 253 C 198 283.38 222.62 308 253 308 C 283.38 308 308 283.38 308 253 C 308 222.62 283.38 198 253 198 Z" fill="#10739e" stroke="none" pointer-events="none"/></g></svg>