<?xml version="1.0" encoding="UTF-8" standalone="no"?>
<svg
   width="452pt"
   height="79.378pt"
   version="1.2"
   viewBox="0 0 452 79.378"
   id="svg22"
   sodipodi:docname="counterfeit.svg"
   inkscape:version="1.3.2 (1:1.3.2+202311252150+091e20ef0f)"
   xmlns:inkscape="http://www.inkscape.org/namespaces/inkscape"
   xmlns:sodipodi="http://sodipodi.sourceforge.net/DTD/sodipodi-0.dtd"
   xmlns:xlink="http://www.w3.org/1999/xlink"
   xmlns="http://www.w3.org/2000/svg"
   xmlns:svg="http://www.w3.org/2000/svg">
  <sodipodi:namedview
     id="namedview22"
     pagecolor="#ffffff"
     bordercolor="#666666"
     borderopacity="1.0"
     inkscape:showpageshadow="2"
     inkscape:pageopacity="0.0"
     inkscape:pagecheckerboard="true"
     inkscape:deskcolor="#d1d1d1"
     inkscape:document-units="pt"
     inkscape:zoom="1.1681416"
     inkscape:cx="301.33333"
     inkscape:cy="53.075758"
     inkscape:window-width="1920"
     inkscape:window-height="1016"
     inkscape:window-x="0"
     inkscape:window-y="27"
     inkscape:window-maximized="1"
     inkscape:current-layer="svg22" />
  <defs
     id="defs11">
    <g
       id="g9">
      <symbol
         id="i"
         overflow="visible">
        <path
           d="m5.4219-54.047 1.2344 4.1875c-1.168.5625-1.9062 1.4336-2.2188 2.6094-.30469 1.168-.17969 2.6719.375 4.5156l8.4844 28.641.4375 1.4844c.15625.52344.41406 1.0469.78125 1.5781.36328.53125.76562.96484 1.2031 1.2969.47656.35547.92969.57422 1.3594.65625.4375.085937.98828.070313 1.6562-.046875l1.25 4.2188c-4.0312 1.1875-7.8828 1.0625-11.547-.375-3.2188-1.2812-6.0156-3.4609-8.3906-6.5469-2.3633-3.082-4.25-7-5.6562-11.75-1.0312-3.5-1.5625-6.8789-1.5938-10.141-.03125-3.2695.44922-6.2578 1.4375-8.9688 1.0117-2.7266 2.4766-5.1133 4.3906-7.1562 1.9062-2.0508 3.9258-3.3945 6.0625-4.0312zm3.7188 3.4844-1.25-4.2031c1.082-.10156 1.9688-.14453 2.6562-.125.69531.01172 1.9727.10156 3.8281.26562 1.1758.11719 1.9453.12109 2.3125.01563.59375-.17578.95703-.61328 1.0938-1.3125l.15625-.95313c.09375-.61328.48438-1.0234 1.1719-1.2344.5625-.16406 1.0469-.10938 1.4531.17188s.71094.78125.92188 1.5l4.2656 14.406c.28125.91797.30078 1.6406.0625 2.1719-.26172.52344-.63281.85547-1.1094 1-.49219.14844-.94531.08984-1.3594-.17188-.40625-.26953-.82031-.78516-1.2344-1.5469-.98047-1.6875-1.8398-2.9883-2.5781-3.9062-1.5312-1.9375-3.0742-3.4141-4.625-4.4375-1.043-.69531-2.0234-1.1797-2.9375-1.4531-.91797-.26953-1.8594-.33203-2.8281-.1875zm13.406 44.891-1.25-4.2188c1.5703-.61328 3.0703-1.7969 4.5-3.5469.75781-.95703 1.3477-2.1094 1.7656-3.4531.41406-1.3438.60938-2.7383.57812-4.1875-.01172-.80078.07813-1.3945.26562-1.7812.1875-.39453.50781-.66016.96875-.79688.5-.14453.97656-.0625 1.4375.25.45703.3125.78125.78906.96875 1.4219.30078 1.043.3125 2.4062.03125 4.0938-.28125 1.6797-.79297 3.3086-1.5312 4.8906-.9375 1.9297-2.0234 3.4805-3.25 4.6562-1.2188 1.168-2.7148 2.0586-4.4844 2.6719z"
           id="path1" />
      </symbol>
      <symbol
         id="h"
         overflow="visible">
        <path
           d="m5.7812-50.094c-.94922.73047-1.5312 1.5234-1.75 2.375-.21875.84375-.12109 1.9531.29688 3.3281l9.1719 30.984c.59375 2.0234 1.2656 3.375 2.0156 4.0625.59375.57422 1.4531.85938 2.5781.85938l1.1406 3.7969c-4.7422.96094-9.1797.17969-13.312-2.3438-5.3867-3.2695-9.2656-8.9141-11.641-16.938-1.1875-4.0195-1.7227-7.8125-1.6094-11.375.11719-3.5625.88281-6.7852 2.2969-9.6719 1.0859-2.1953 2.4219-4.0195 4.0156-5.4688 1.582-1.457 3.4766-2.5703 5.6875-3.3438zm2.5625-.76562-1.1094-3.7344c2.2812-.55078 4.4766-.64844 6.5938-.29688 2.125.35547 4.2422 1.1562 6.3594 2.4062 5.6016 3.3438 9.6172 9.1016 12.047 17.266 2.375 8.0234 2.1953 14.871-.53125 20.547-2.0859 4.3867-5.3867 7.4609-9.9062 9.2188l-1.1406-3.7969c.5-.30078.86328-.60156 1.0938-.90625.23828-.3125.42188-.70703.54688-1.1875.28906-1.125.15625-2.6445-.40625-4.5625l-9.1719-30.984c-.36719-1.2188-.85156-2.1289-1.4531-2.7344-.38672-.40625-.79297-.69531-1.2188-.875-.42969-.17578-.99609-.29688-1.7031-.35938z"
           id="path2" />
      </symbol>
      <symbol
         id="g"
         overflow="visible">
        <path
           d="m1.125-15.375-8.0469-27.156c-.23828-.8125-.53906-1.3633-.90625-1.6562-.1875-.16406-.34766-.25781-.48438-.28125-.13281-.03125-.57812-.06641-1.3281-.10938-.9375-.0625-1.5391-.55078-1.8125-1.4688-.17578-.60156-.10938-1.1172.20312-1.5469.3125-.4375.84375-.76953 1.5938-1l.8125-.23438 13.922-4.125.79688-.23438 1.1719-.17188c.38281 0 .73438.12109 1.0469.35938.32031.23047.54688.55469.67188.96875.26953.91797.035156 1.6523-.70312 2.2031-.61719.46094-.96875.73438-1.0625.82812-.09375.08594-.17969.25-.25.5-.125.4375-.070312 1.0625.17188 1.875l8.6094 29.062c.58203 1.9688 1.0312 3.3281 1.3438 4.0781.32031.74219.72266 1.375 1.2031 1.9062.4375.5.85938.82812 1.2656.98438s1.1289.25781 2.1719.29688l1.3438 4.5312-.6875.20312c-2.7109.80469-5.0391 1.2109-6.9844 1.2188-2.2812 0-4.3984-.37891-6.3438-1.1406-1.9375-.75781-3.4648-1.8008-4.5781-3.125-1.1797-1.4141-2.2266-3.6719-3.1406-6.7656zm24.594 8.7656-1.3438-4.5312c1.9883-.91406 3.4453-2.375 4.375-4.375 1.0312-2.3008 1.0391-5.1602.03125-8.5781l-6.7031-22.594c-.9375-3.1641-2.6836-5.0469-5.2344-5.6406-.75-.1875-1.2656-.37891-1.5469-.57812-.27344-.20703-.48047-.56641-.625-1.0781-.17969-.59375-.10938-1.0781.20312-1.4531s.92188-.69141 1.8281-.95312l7.6406-2.2656c.63281-.1875 1.0664-.29688 1.2969-.32812.22656-.03125.46875-.0078.71875.0625.64453.19922 1.0547.59375 1.2344 1.1875.15625.51172.11719.99219-.10938 1.4375-.07422.13672-.43359.57812-1.0781 1.3281-.75.83594-1.2188 1.8984-1.4062 3.1875-.17969 1.293-.05469 2.668.375 4.125l6.7031 22.625c1.1562 3.8867 1.3359 7.2969.54688 10.234-.58594 2.1797-1.7578 4.1367-3.5156 5.875-.875.85547-2.0078 1.625-3.3906 2.3125z"
           id="path3" />
      </symbol>
      <symbol
         id="f"
         overflow="visible">
        <path
           d="m6.1875-53.281 26.078 27.094 4.5312 15.281-8.5156 2.5312-33.203-34.281c-.70703-.73828-1.2539-1.2344-1.6406-1.4844-.39453-.25781-.84375-.39844-1.3438-.42188l-1.3281-.14062c-.35156-.03125-.66406-.16406-.9375-.40625-.26953-.23828-.46094-.54688-.57812-.92188-.11328-.38281-.12891-.77344-.04687-1.1719.08594-.39453.26562-.70703.54688-.9375.29297-.26953 1.2188-.63281 2.7812-1.0938zm-9.4531 16.047 5.1094 5.1094 5.5 18.578c.46875 1.6055 1.1016 2.8594 1.9062 3.7656.80078.89844 1.832 1.5234 3.0938 1.875l1.1094.29688c.64453.19922 1.0664.64062 1.2656 1.3281.16406.53125.09766 1.0273-.20312 1.4844-.24219.40625-.88281.76172-1.9219 1.0625l-7.2031 2.1406c-1.8867.55469-3.0078.23047-3.3594-.96875-.125-.41406-.13281-.76953-.015625-1.0625.125-.30078.46094-.76562 1.0156-1.3906 1.625-1.8125 1.9609-4.3281 1.0156-7.5469zm33.891 5.5-5.1406-5.2188-2.8438-9.5781c-.58594-1.9453-1.2812-3.3594-2.0938-4.2344s-1.9766-1.4883-3.4844-1.8438c-.51172-.11328-.88672-.27344-1.125-.48438-.24219-.21875-.41797-.53125-.53125-.9375-.1875-.625-.14844-1.1328.125-1.5312.28125-.40625.82031-.72656 1.625-.96875l7.7969-2.3125c1.0625-.3125 1.8164-.33203 2.2656-.0625.45703.27344.76562.66406.92188 1.1719.14453.49219.14844.88672.01563 1.1875-.125.29297-.5.75781-1.125 1.3906-.91797.94922-1.4648 2.1523-1.6406 3.6094-.10547 1.0625.08203 2.4062.5625 4.0312z"
           id="path4" />
      </symbol>
      <symbol
         id="b"
         overflow="visible">
        <path
           d="m11.828-54.953 12.062 40.719c.26953.89844.61719 1.4961 1.0469 1.7969.22656.17969.42578.27734.59375.29688.16406.01172.67969.01172 1.5469 0 1.082-.03906 1.7695.44922 2.0625 1.4688.1875.60547.06641 1.168-.35938 1.6875-.3125.39844-.9375.73438-1.875 1.0156l-1.0312.3125-13.906 4.1094-1.0312.3125c-.90625.27344-1.6406.32422-2.2031.15625-.5625-.17578-.9375-.58203-1.125-1.2188-.29297-1.0195.015625-1.8008.92188-2.3438.75-.46875 1.1875-.75 1.3125-.84375.125-.10156.22656-.29688.3125-.57812.19531-.47656.16016-1.1641-.10938-2.0625l-12.062-40.719zm10.781-3.1875 4.2031 14.172c.19531.66797.1875 1.2617-.03125 1.7812-.21094.52344-.58984.86719-1.1406 1.0312-.51172.14844-.99609.07813-1.4531-.20312-.46094-.28125-.83984-.73828-1.1406-1.375l-.92188-2.0312c-.96094-2.0625-2.1172-3.7383-3.4688-5.0312-.84375-.80078-1.8398-1.3789-2.9844-1.7344l-1.25-4.1875zm-35.359 10.469 8.2188-2.4375 1.25 4.1875c-.78906.92969-1.3164 1.9531-1.5781 3.0781-.42578 1.8359-.47656 3.875-.15625 6.125l.3125 2.2031c.09375.69922.027344 1.293-.20312 1.7812-.22656.48047-.60156.79688-1.125.95312-.53125.15625-1.0312.07813-1.5-.23438-.47656-.32031-.81641-.81641-1.0156-1.4844z"
           id="path5" />
      </symbol>
      <symbol
         id="a"
         overflow="visible">
        <path
           d="m5.5625-53.094 14.016 47.297-13.875 4.1094-.79688.23438c-.75.21875-1.375.23438-1.875.046875s-.83594-.57031-1-1.1562c-.28125-.94531-.054688-1.6914.6875-2.2344.61328-.46875.96875-.74219 1.0625-.82812.09375-.082031.17188-.25391.23438-.51562.13281-.4375.082031-1.0625-.15625-1.875l-10.266-34.672c-.23828-.8125-.53906-1.3633-.90625-1.6562-.17578-.16406-.32812-.25781-.45312-.28125-.13281-.03125-.58203-.06641-1.3438-.10938-.92578-.07031-1.5234-.57812-1.7969-1.5156-.17578-.58203-.10938-1.0859.20312-1.5156.3125-.4375.84375-.76562 1.5938-.98438l.79688-.23438zm2.7812-.82812 12.562-3.7188 3.6406 12.266c.20703.71875.23438 1.2773.07813 1.6719-.14844.39844-.49219.67969-1.0312.84375-.46094.13672-.82422.13281-1.0938-.01563-.27344-.15625-.58984-.52344-.95312-1.1094-1.5938-2.4453-3.3672-4.1445-5.3125-5.0938-1.9375-.95703-4.168-1.2188-6.6875-.78125zm7.3281 25.281-1.1875-4.0156c1-1.0078 1.6758-1.9766 2.0312-2.9062.36328-.9375.49219-2.082.39062-3.4375-.09375-.92578-.05859-1.5977.10938-2.0156.17578-.41406.51562-.69531 1.0156-.84375.65625-.19531 1.1914-.03906 1.6094.46875.25.26172.53125.91797.84375 1.9688l3.9062 13.203c.32031 1.0938.42969 1.8828.32812 2.3594-.09375.46875-.43359.79297-1.0156.96875-.48047.13672-.90234.08984-1.2656-.14062-.36719-.23828-.74609-.72266-1.1406-1.4531-.82422-1.4883-1.6875-2.5547-2.5938-3.2031-.89844-.65625-1.9062-.97266-3.0312-.95312zm6.7031 22.016-1.1094-3.75c1.2812-.63281 2.3008-1.2852 3.0625-1.9531.76953-.67578 1.4727-1.5781 2.1094-2.7031.63281-1.1133 1.082-2.207 1.3438-3.2812.25781-1.0703.41016-2.4297.45312-4.0781.0078-.80078.09766-1.3672.26562-1.7031.17578-.33203.48438-.56641.92188-.70312.58203-.16406 1.0391-.09375 1.375.21875.34375.3125.65625.94531.9375 1.8906l3.625 12.219z"
           id="path6" />
      </symbol>
      <symbol
         id="e"
         overflow="visible">
        <path
           d="m5.5625-53.094 12.062 40.719c.26953.89844.61719 1.4961 1.0469 1.7969.22656.17969.42578.27734.59375.29688.16406.01172.6875.01172 1.5625 0 1.082-.03906 1.7695.44922 2.0625 1.4688.1875.60547.0625 1.168-.375 1.6875-.32422.39844-.9375.73047-1.8438 1l-1.0625.3125-13.906 4.125-.79688.23438c-.75.21875-1.375.23438-1.875.046875s-.83594-.57031-1-1.1562c-.28125-.94531-.054688-1.6914.6875-2.2344.61328-.46875.96875-.74219 1.0625-.82812.09375-.082031.17188-.25391.23438-.51562.13281-.4375.082031-1.0625-.15625-1.875l-10.266-34.672c-.23828-.8125-.53906-1.3633-.90625-1.6562-.17578-.16406-.32812-.25781-.45312-.28125-.13281-.03125-.58203-.06641-1.3438-.10938-.92578-.07031-1.5234-.57812-1.7969-1.5156-.17578-.58203-.10938-1.0859.20312-1.5156.3125-.4375.84375-.76562 1.5938-.98438l.79688-.23438zm16.734 21.281c2-.25 3.5703-.32812 4.7188-.23438 1.1445.09375 2.2344.35156 3.2656.76562 1.082.46094 2.0039 1.1172 2.7656 1.9688.76953.85547 1.3203 1.8398 1.6562 2.9531l2.1094 7.1562c.21875.74219.53906 1.0469.96875.92188.16406-.05078.28906-.14453.375-.28125.08203-.13281.1875-.38281.3125-.75.28906-.9375.70703-1.4844 1.25-1.6406.35156-.10156.76562 0 1.2344.3125.47656.3125.78125.67969.90625 1.0938.20703.71094.15625 1.668-.15625 2.875-.30469 1.2109-.79297 2.3516-1.4688 3.4219-.625 1.0234-1.3906 1.8516-2.2969 2.4844-.89844.625-2.0156 1.1367-3.3594 1.5312-2.75.8125-5.1562.57812-7.2188-.70312-2.0547-1.2891-3.5391-3.4922-4.4531-6.6094l-1.7188-5.8125c-.38672-1.3008-.62109-2.0508-.70312-2.25-.375-.88281-.90234-1.5938-1.5781-2.125-.83594-.625-1.8398-.84375-3.0156-.65625l-1.1094-3.7031c1.082-.51953 1.7969-1.082 2.1406-1.6875.28125-.53906.42188-1.0977.42188-1.6719 0-.58203-.15625-1.3906-.46875-2.4219l-2.7188-9.1875c-.42969-1.457-1.0078-2.4688-1.7344-3.0312-.71875-.5625-1.8086-.85938-3.2656-.89062l-1.1406-3.8438.8125-.23438c2.3125-.6875 4.3125-1.1758 6-1.4688 2.4766-.45703 4.8906-.21094 7.2344.73438 3.3516 1.3359 5.6172 3.9844 6.7969 7.9531.95703 3.2617.83594 6.2031-.35938 8.8281-.51172 1.1055-1.2031 2.0898-2.0781 2.9531-.86719.86719-2.2422 1.9492-4.125 3.25z"
           id="path7" />
      </symbol>
      <symbol
         id="d"
         overflow="visible">
        <path
           d="m5.5625-53.094 12.062 40.719c.26953.89844.61719 1.4961 1.0469 1.7969.22656.17969.42578.27734.59375.29688.16406.01172.6875.01172 1.5625 0 1.082-.03906 1.7695.44922 2.0625 1.4688.1875.60547.0625 1.168-.375 1.6875-.32422.39844-.9375.73047-1.8438 1l-1.0625.3125-13.906 4.125-.79688.23438c-.75.21875-1.375.23438-1.875.046875s-.83594-.57031-1-1.1562c-.28125-.94531-.054688-1.6914.6875-2.2344.61328-.46875.96875-.74219 1.0625-.82812.09375-.082031.17188-.25391.23438-.51562.13281-.4375.082031-1.0625-.15625-1.875l-10.266-34.672c-.23828-.8125-.53906-1.3633-.90625-1.6562-.17578-.16406-.32812-.25781-.45312-.28125-.13281-.03125-.58203-.06641-1.3438-.10938-.92578-.07031-1.5234-.57812-1.7969-1.5156-.17578-.58203-.10938-1.0859.20312-1.5156.3125-.4375.84375-.76562 1.5938-.98438l.79688-.23438zm2.75-.8125 12.562-3.7188 3.5938 12.094c.22656.79297.26953 1.3984.125 1.8125-.14844.41797-.5.71094-1.0625.875-.41797.125-.78125.10547-1.0938-.0625-.3125-.17578-.63672-.53125-.96875-1.0625-.65625-1.0312-1.375-1.9453-2.1562-2.75-.78125-.80078-1.5781-1.4453-2.3906-1.9375-1.125-.66406-2.2734-1.0938-3.4375-1.2812-1.1562-.1875-2.4805-.15625-3.9688.09375zm7.3281 25.281-1.1875-4.0156c1.0195-1.0195 1.7031-1.9883 2.0469-2.9062.35156-.91406.47656-2.0625.375-3.4375-.09375-.92578-.058594-1.5977.10938-2.0156.17578-.41406.51562-.70312 1.0156-.85938.65625-.1875 1.1914-.03125 1.6094.46875.25.26172.53125.91797.84375 1.9688l3.9062 13.203c.32031 1.0938.42969 1.8828.32812 2.3594-.09375.48047-.43359.80469-1.0156.96875-.48047.14844-.90234.10156-1.2656-.14062-.36719-.23828-.74609-.71875-1.1406-1.4375-.84375-1.4883-1.7148-2.5625-2.6094-3.2188-.88672-.65625-1.8906-.96875-3.0156-.9375z"
           id="path8" />
      </symbol>
      <symbol
         id="c"
         overflow="visible">
        <path
           d="m19.609-5.8125-13.906 4.125-.79688.23438c-.75.21875-1.375.23438-1.875.046875s-.83594-.57031-1-1.1562c-.28125-.94531-.054688-1.6914.6875-2.2344.61328-.46875.96875-.74219 1.0625-.82812.09375-.082031.17188-.25391.23438-.51562.13281-.4375.082031-1.0625-.15625-1.875l-10.266-34.672c-.23828-.8125-.53906-1.3633-.90625-1.6562-.17578-.16406-.32812-.25781-.45312-.28125-.13281-.03125-.58203-.06641-1.3438-.10938-.92578-.07031-1.5234-.57812-1.7969-1.5156-.17578-.58203-.10938-1.0859.20312-1.5156.3125-.4375.84375-.76562 1.5938-.98438l.79688-.23438 13.906-4.125.8125-.23438c.75-.21875 1.3672-.22656 1.8594-.03125.5.1875.83594.57422 1.0156 1.1562.26953.9375.039062 1.6836-.6875 2.2344-.61719.46094-.96875.73438-1.0625.82812-.09375.08594-.17969.25-.25.5-.13672.4375-.085938 1.0625.15625 1.875l10.266 34.672c.23828.8125.53906 1.3672.90625 1.6562.1875.17969.34375.27734.46875.29688.13281.02344.58203.05859 1.3438.10938.91406.0625 1.5156.57031 1.7969 1.5156.16406.58594.09375 1.0898-.21875 1.5156-.30469.42969-.82812.75-1.5781.96875z"
           id="path9" />
      </symbol>
    </g>
    <clipPath
       id="clipPath10">
      <path
         d="m.050781.070312h451.44v200.16h-451.44z"
         id="path10" />
    </clipPath>
    <clipPath
       id="j">
      <rect
         width="452"
         height="201"
         id="rect10" />
    </clipPath>
    <g
       clip-path="url(#j)"
       id="g10" />
    <clipPath
       id="clipPath11">
      <rect
         width="596"
         height="420"
         id="rect11" />
    </clipPath>
  </defs>
  <g
     transform="rotate(16.499 787.53 17.543)"
     id="g22">
    <g
       fill="#e82326"
       id="g21">
      <use
         x="58.826199"
         y="282.69199"
         xlink:href="#i"
         id="use11" />
      <use
         x="94.841782"
         y="272.02374"
         xlink:href="#h"
         id="use12" />
      <use
         x="134.05023"
         y="260.4097"
         xlink:href="#g"
         id="use13" />
      <use
         x="176.00455"
         y="247.98232"
         xlink:href="#f"
         id="use14" />
      <use
         x="217.57573"
         y="235.66841"
         xlink:href="#b"
         id="use15" />
      <use
         x="254.22987"
         y="224.81099"
         xlink:href="#a"
         id="use16" />
      <use
         x="290.43704"
         y="214.08598"
         xlink:href="#e"
         id="use17" />
      <use
         x="333.7962"
         y="201.24245"
         xlink:href="#d"
         id="use18" />
      <use
         x="368.66235"
         y="190.91466"
         xlink:href="#a"
         id="use19" />
      <use
         x="404.86951"
         y="180.18965"
         xlink:href="#c"
         id="use20" />
      <use
         x="428.87991"
         y="173.07748"
         xlink:href="#b"
         id="use21" />
    </g>
    <path
       transform="matrix(.1 0 0 -.1 0 419.53)"
       d="m474.84 1979.4s-163.09-48.281-114.77-211.37l111.76-377.34s48.32-163.05 211.41-114.77l3950.1 1170.1s163.05 48.32 114.77 211.41l-111.76 377.3s-48.32 163.09-211.41 114.8z"
       fill="none"
       stroke="#e82326"
       stroke-width="60"
       id="path21" />
  </g>
</svg>
