<?xml version="1.0" encoding="UTF-8" standalone="no"?>
<svg
   xmlns:dc="http://purl.org/dc/elements/1.1/"
   xmlns:cc="http://creativecommons.org/ns#"
   xmlns:rdf="http://www.w3.org/1999/02/22-rdf-syntax-ns#"
   xmlns:svg="http://www.w3.org/2000/svg"
   xmlns="http://www.w3.org/2000/svg"
   id="svg12"
   version="1.2"
   viewBox="0 0 514.24 597.73"
   height="597.73pt"
   width="514.24pt">
  <metadata
     id="metadata16">
    <rdf:RDF>
      <cc:Work
         rdf:about="">
        <dc:format>image/svg+xml</dc:format>
        <dc:type
           rdf:resource="http://purl.org/dc/dcmitype/StillImage" />
        <dc:title></dc:title>
      </cc:Work>
    </rdf:RDF>
  </metadata>
  <defs
     id="defs5">
    <clipPath
       id="clip1">
      <path
         id="path2"
         d="M 0 0 L 514.238281 0 L 514.238281 597.730469 L 0 597.730469 Z M 0 0 " />
    </clipPath>
  </defs>
  <g
     id="surface925">
    <g
       id="g9"
       clip-rule="nonzero"
       clip-path="url(#clip1)">
      <path
         id="path7"
         d="M 191.195312 257.347656 C 188.65625 256.117188 185.800781 255.25 182.621094 254.851562 C 185.617188 234.953125 191.589844 212.59375 199.90625 187.917969 C 201.230469 188.988281 202.6875 189.929688 204.277344 190.730469 C 197.0625 215.253906 193.125 237.6875 191.195312 257.347656 M 135.914062 231.746094 C 133.203125 230.03125 130.046875 228.78125 126.441406 228.140625 C 130.144531 202.585938 138.84375 173.019531 151.316406 139.414062 C 152.285156 140.628906 153.375 141.765625 154.574219 142.792969 C 143.535156 176.046875 138.195312 206.410156 135.914062 231.746094 M 85.316406 200.285156 C 82.746094 197.425781 79.492188 195.125 75.558594 193.640625 C 78.390625 163.890625 88.488281 128.035156 104.050781 86.640625 C 105.371094 88.523438 106.960938 90.214844 108.777344 91.699219 C 94.1875 133.90625 86.667969 170.617188 85.316406 200.285156 M 34.410156 151.304688 C 32.707031 146.273438 29.699219 141.738281 25.386719 138.453125 C 31.394531 105.273438 45.714844 65.4375 64.550781 19.539062 C 65.382812 22.015625 66.539062 24.367188 68 26.507812 C 48.558594 75.652344 37.265625 117.496094 34.410156 151.304688 M 222.117188 196.445312 C 163.300781 156.1875 86.632812 70.742188 61 0 C 15.425781 42.015625 0 88.300781 0 88.300781 C 26.109375 187.511719 128.226562 241.21875 211.304688 269.335938 C 216.941406 261.332031 240.441406 208.992188 222.117188 196.445312 M 374.363281 245.945312 C 377.117188 247.792969 380.332031 249.152344 384.042969 249.855469 C 380.410156 271.878906 365.574219 296.816406 356.480469 310.476562 C 354.582031 309.382812 352.480469 308.53125 350.175781 307.921875 C 357.785156 294.164062 371.03125 267.773438 374.363281 245.945312 M 435.46875 289.664062 C 437.242188 292.332031 439.492188 294.679688 442.214844 296.554688 C 426.902344 314.726562 404.0625 327.378906 388.636719 334.453125 C 387.558594 332.882812 386.316406 331.425781 384.898438 330.121094 C 399.039062 323.117188 420.476562 309.652344 435.46875 289.664062 M 471.449219 364.605469 C 471.011719 368.308594 471.203125 372.097656 472.019531 375.734375 C 452.308594 376.304688 428.003906 374.695312 407.332031 371.605469 C 407.140625 369.933594 406.832031 368.285156 406.390625 366.664062 C 421.171875 368.152344 446.203125 369.320312 471.449219 364.605469 M 308.441406 297.285156 C 342.792969 307.972656 375.597656 322.082031 388.554688 339.65625 C 402.527344 358.617188 406.320312 376.175781 404.574219 391.402344 L 464.589844 459.863281 C 479.984375 423.882812 485.28125 373.328125 461.183594 320.910156 C 446.230469 288.386719 411.691406 250.648438 340.484375 229.285156 C 339.300781 251.359375 322.351562 285.304688 308.441406 297.285156 M 144.195312 323.761719 C 141.65625 321.53125 138.605469 319.761719 135.035156 318.65625 C 133.226562 301.601562 133.507812 278.800781 142.613281 258.785156 C 144.066406 260.046875 145.679688 261.140625 147.460938 262.066406 C 138.75 282.820312 140.886719 307.101562 144.195312 323.761719 M 207.6875 280.554688 C 148.585938 264.53125 90.195312 225.015625 90.195312 225.015625 C 91.042969 257.277344 104.066406 284.550781 117.726562 302.867188 C 140.394531 333.246094 173.269531 348.914062 173.269531 348.914062 C 173.269531 348.914062 191.546875 299.78125 207.6875 280.554688 M 294.230469 534.417969 C 291.183594 533.289062 287.746094 532.628906 283.878906 532.628906 C 283.085938 532.628906 282.328125 532.691406 281.574219 532.742188 C 290.121094 498.496094 290.714844 470.605469 289.882812 454.164062 C 292.28125 454.867188 294.90625 455.273438 297.761719 455.332031 C 300.308594 472.550781 301.835938 500.347656 294.230469 534.417969 M 205.660156 490.511719 C 204.074219 487.085938 201.8125 484.003906 198.898438 481.515625 C 227.269531 465.75 247.683594 446.457031 259.773438 433.207031 C 260.703125 434.703125 261.777344 436.105469 263 437.394531 C 250.886719 451.90625 231.007812 473.128906 205.660156 490.511719 M 176.191406 389.382812 C 177.078125 386.933594 177.648438 384.371094 177.910156 381.761719 C 211.703125 388.597656 237.597656 385.546875 250.070312 383.105469 C 249.339844 387.269531 249.433594 391.601562 250.324219 395.726562 C 235.285156 397.285156 207.285156 398.144531 176.191406 389.382812 M 205.171875 314.296875 C 228.894531 319.914062 260.753906 319.984375 277.476562 319.539062 C 274.378906 322.367188 272.082031 325.898438 270.585938 329.773438 C 254.578125 328.878906 223.597656 326.371094 202.414062 319.976562 C 203.53125 318.191406 204.464844 316.285156 205.171875 314.296875 M 235.324219 252.132812 C 253.121094 253.410156 292.808594 255.195312 320.164062 248.609375 C 318.429688 251.808594 317.324219 255.355469 316.824219 259.007812 C 278.640625 263.207031 248.417969 258.476562 234.300781 255.585938 C 234.714844 254.460938 235.050781 253.308594 235.324219 252.132812 M 242.042969 175.308594 C 240.910156 174.070312 239.648438 172.929688 238.253906 171.929688 C 249.996094 156.210938 271.558594 123.351562 273.132812 91.828125 C 275.992188 93.691406 279.363281 95.03125 283.234375 95.671875 C 279.570312 128.550781 255.523438 160.558594 242.042969 175.308594 M 327.1875 168.652344 C 327.21875 172.816406 328.050781 176.972656 329.648438 180.773438 C 296.5 198.152344 264.769531 203.289062 249.007812 204.839844 C 248.824219 202.621094 248.394531 200.441406 247.757812 198.316406 C 262.996094 195.441406 294.261719 187.707031 327.1875 168.652344 M 212.488281 166.691406 C 207.738281 148.449219 196.222656 112.121094 174.089844 83.191406 C 178.875 82.503906 182.933594 80.789062 186.21875 78.320312 C 207.347656 108.554688 215.246094 146.148438 218.152344 165.238281 C 216.132812 165.539062 214.238281 166.035156 212.488281 166.691406 M 310.9375 453.59375 C 288.820312 450.355469 265.648438 440.632812 258.242188 416.917969 C 235.457031 343.933594 312.984375 302.894531 329.449219 235.457031 C 339.417969 194.632812 338.476562 156.65625 313.6875 119.359375 C 288.082031 80.820312 213.148438 39.191406 138.394531 98.910156 C 138.394531 98.910156 186.320312 158.328125 211.605469 175.523438 C 216.941406 167.339844 229.761719 164.25 239.019531 183.003906 C 256.808594 219.03125 219.601562 276.199219 208.777344 298.121094 C 186.742188 342.757812 141.59375 412.332031 198.429688 490.859375 C 242.574219 551.859375 366.839844 546.515625 364.339844 532.632812 C 357.933594 503.789062 310.9375 453.59375 310.9375 453.59375 M 444.714844 593.140625 C 442.644531 592.699219 440.421875 592.445312 438.042969 592.445312 C 436.117188 592.445312 434.324219 592.632812 432.601562 592.929688 C 438.582031 575.132812 453.160156 543.171875 486.078125 509.152344 C 487.128906 510.792969 488.34375 512.320312 489.75 513.6875 C 459.695312 545.699219 448.695312 576.042969 444.714844 593.140625 M 393.226562 545.945312 C 391.601562 541.566406 388.96875 537.621094 385.328125 534.589844 C 388.5625 514.488281 399.207031 480.992188 432.832031 447.085938 C 433.867188 448.710938 435.070312 450.230469 436.445312 451.597656 C 402.285156 486.972656 394.664062 525.457031 393.226562 545.945312 M 350.128906 473.785156 C 348.53125 469.894531 346.105469 466.375 342.867188 463.605469 C 344.753906 445.355469 353.316406 417.46875 382.8125 387.097656 C 383.816406 388.765625 384.988281 390.3125 386.335938 391.734375 C 355.09375 424.847656 350.394531 456.898438 350.773438 474.582031 C 350.59375 474.296875 350.328125 474.066406 350.128906 473.785156 M 297.625 407.523438 C 299.671875 390.542969 308.703125 364.175781 339.714844 333.515625 C 340.742188 335.140625 341.925781 336.652344 343.289062 338.027344 C 308.179688 373.238281 304.796875 403.007812 305.847656 417.5625 C 303.984375 413.628906 301.246094 410.140625 297.625 407.523438 M 322.804688 309.511719 C 322.804688 309.511719 287.964844 302.90625 265.363281 377.398438 C 275.804688 388.511719 378.582031 497.738281 408.25 595.289062 C 491.332031 612.378906 514.238281 534.054688 514.238281 534.054688 L 322.804688 309.511719 "
         style=" stroke:none;fill-rule:nonzero;fill:rgb(6.30188%,5.761719%,5.056763%);fill-opacity:1;" />
    </g>
  </g>
</svg>
